# xmcd
#
# Track frame offsets:
#	150
#	24040
#	46607
#	64327
#	89337
#	116175
#	140425
#	166430
#	188282
#	214970
#	239325
#	263585
#	292315
#	314377
#
# Disc length: 4523 seconds
#
# Revision: 9
# Processed by: cddbd v1.5.2PL0 Copyright (c) Steve Scherf et al.
# Submitted via: EasyCDDAExtractor 15.3.0.1
#
DISCID=c611a90e
DTITLE=Madonna - Erotica
DYEAR=1992
DGENRE=Pop
TTITLE0=Erotica
TTITLE1=Fever
TTITLE2=Bye Bye Baby
TTITLE3=Deeper And Deeper
TTITLE4=Where Life Begins
TTITLE5=Bad Girl
TTITLE6=Waiting
TTITLE7=Thief Of Hearts
TTITLE8=Words
TTITLE9=Rain
TTITLE10=Why's It So Hard
TTITLE11=In This Life
TTITLE12=Did You Do It
TTITLE13=Secret Garden
EXTD=Sire/Time Warner
EXTT0=
EXTT1=
EXTT2=
EXTT3=
EXTT4=
EXTT5=
EXTT6=
EXTT7=
EXTT8=
EXTT9=
EXTT10=
EXTT11=
EXTT12=
EXTT13=
PLAYORDER=
